<svg xmlns="http://www.w3.org/2000/svg" viewBox="0 0 1360 820" font-family="'Source Serif 4', 'Source Serif Pro', Georgia, serif">
  <defs>
    <style>
      .label { font-family: 'JetBrains Mono', 'IBM Plex Mono', ui-monospace, monospace; font-size: 13px; fill: #B5482A; letter-spacing: 0.18em; }
      .title-meta { font-family: 'JetBrains Mono', 'IBM Plex Mono', ui-monospace, monospace; font-size: 13px; fill: #6B6358; letter-spacing: 0.18em; }
      .heading { font-size: 32px; fill: #1B1A18; }
      .subheading { font-family: 'JetBrains Mono', 'IBM Plex Mono', ui-monospace, monospace; font-size: 13px; fill: #6B6358; }
      .col-label { font-family: 'JetBrains Mono', 'IBM Plex Mono', ui-monospace, monospace; font-size: 11px; fill: #8C8276; letter-spacing: 0.12em; }
      .name { font-size: 19px; fill: #1B1A18; }
      .meta { font-family: 'JetBrains Mono', 'IBM Plex Mono', ui-monospace, monospace; font-size: 12px; fill: #6B6358; }
      .body { font-family: 'JetBrains Mono', 'IBM Plex Mono', ui-monospace, monospace; font-size: 13px; fill: #1B1A18; }
      .body-muted { font-family: 'JetBrains Mono', 'IBM Plex Mono', ui-monospace, monospace; font-size: 13px; fill: #6B6358; }
      .pill-text { font-family: 'JetBrains Mono', 'IBM Plex Mono', ui-monospace, monospace; font-size: 11px; letter-spacing: 0.06em; }
    </style>
  </defs>

  <rect width="1360" height="820" fill="#F1ECE0"/>

  <line x1="80" y1="50" x2="1280" y2="50" stroke="#E0D5BC" stroke-width="1"/>

  <text x="80" y="100" class="label">BEAM</text>
  <text x="142" y="100" class="title-meta">SELF-HOSTED PUBLISHING</text>
  <text x="1207" y="100" class="meta" text-anchor="end">alex@acme.com</text>
  <rect x="1218" y="86" width="62" height="20" rx="4" ry="4" fill="#1B1A18"/>
  <text x="1249" y="100" class="pill-text" fill="#F1ECE0" text-anchor="middle" letter-spacing="0.1em">ADMIN</text>

  <text x="80" y="170" class="heading">Dashboards</text>
  <text x="80" y="198" class="subheading">3 dashboards visible · 3 active shares · 1 expiring soon · 1 confidential</text>

  <line x1="80" y1="260" x2="1280" y2="260" stroke="#E0D5BC" stroke-width="1"/>
  <text x="80" y="248" class="col-label">DASHBOARD</text>
  <text x="560" y="248" class="col-label">CLASSIFICATION</text>
  <text x="740" y="248" class="col-label">VISIBILITY</text>
  <text x="900" y="248" class="col-label">EXTERNAL SHARE</text>
  <text x="1280" y="248" class="col-label" text-anchor="end">ACTIONS</text>

  <!-- ROW 1 -->
  <g transform="translate(80, 290)">
    <rect width="44" height="44" rx="6" ry="6" fill="#FFFFFF" stroke="#E0D5BC" stroke-width="1"/>
    <rect x="6" y="6" width="6" height="6" fill="#B5482A"/>
    <rect x="32" y="6" width="6" height="6" fill="#B5482A"/>
    <rect x="13" y="13" width="6" height="6" fill="#B5482A"/>
    <rect x="25" y="13" width="6" height="6" fill="#B5482A"/>
    <rect x="6" y="20" width="6" height="6" fill="#B5482A"/>
    <rect x="19" y="20" width="6" height="6" fill="#B5482A"/>
    <rect x="32" y="20" width="6" height="6" fill="#B5482A"/>
    <rect x="13" y="27" width="6" height="6" fill="#B5482A"/>
    <rect x="25" y="27" width="6" height="6" fill="#B5482A"/>
    <rect x="19" y="34" width="6" height="6" fill="#B5482A"/>
  </g>
  <text x="148" y="305" class="name">Q4 revenue review</text>
  <text x="148" y="328" class="meta">w8q4mh3rk2 · v3 · alex@acme.com</text>

  <rect x="560" y="298" width="118" height="22" rx="4" ry="4" fill="none" stroke="#B5482A" stroke-width="1"/>
  <circle cx="573" cy="309" r="3" fill="#B5482A"/>
  <text x="583" y="313" class="pill-text" fill="#B5482A">CONFIDENTIAL</text>

  <text x="740" y="313" class="body">Shared (3)</text>

  <circle cx="905" cy="305" r="4" fill="#B5482A"/>
  <text x="915" y="309" class="body" fill="#B5482A">Expiring soon</text>
  <text x="900" y="328" class="meta">17h 42m · password set</text>

  <g transform="translate(1078, 297)">
    <rect width="58" height="26" rx="4" ry="4" fill="#1B1A18"/>
    <text x="29" y="17" class="pill-text" fill="#F1ECE0" text-anchor="middle">ROTATE</text>
  </g>
  <g transform="translate(1142, 297)">
    <rect width="44" height="26" rx="4" ry="4" fill="none" stroke="#1B1A18" stroke-width="1"/>
    <text x="22" y="17" class="pill-text" text-anchor="middle" fill="#1B1A18">COPY</text>
  </g>
  <g transform="translate(1192, 297)">
    <rect width="34" height="26" rx="4" ry="4" fill="none" stroke="#1B1A18" stroke-width="1"/>
    <text x="17" y="17" class="pill-text" text-anchor="middle" fill="#1B1A18">QR</text>
  </g>
  <g transform="translate(1232, 297)">
    <rect width="48" height="26" rx="4" ry="4" fill="none" stroke="#B5482A" stroke-width="1"/>
    <text x="24" y="17" class="pill-text" text-anchor="middle" fill="#B5482A">MORE</text>
  </g>

  <line x1="80" y1="370" x2="1280" y2="370" stroke="#E0D5BC" stroke-width="1"/>

  <!-- ROW 2 -->
  <g transform="translate(80, 400)">
    <rect width="44" height="44" rx="6" ry="6" fill="#FFFFFF" stroke="#E0D5BC" stroke-width="1"/>
    <rect x="6" y="6" width="6" height="6" fill="#1B1A18"/>
    <rect x="19" y="6" width="6" height="6" fill="#1B1A18"/>
    <rect x="32" y="6" width="6" height="6" fill="#1B1A18"/>
    <rect x="13" y="13" width="6" height="6" fill="#1B1A18"/>
    <rect x="25" y="13" width="6" height="6" fill="#1B1A18"/>
    <rect x="19" y="20" width="6" height="6" fill="#1B1A18"/>
    <rect x="6" y="27" width="6" height="6" fill="#1B1A18"/>
    <rect x="32" y="27" width="6" height="6" fill="#1B1A18"/>
    <rect x="13" y="34" width="6" height="6" fill="#1B1A18"/>
    <rect x="25" y="34" width="6" height="6" fill="#1B1A18"/>
  </g>
  <text x="148" y="415" class="name">Engineering velocity</text>
  <text x="148" y="438" class="meta">k3xn7vp2bq · v8 · priya@acme.com</text>

  <rect x="560" y="408" width="84" height="22" rx="4" ry="4" fill="none" stroke="#6B6358" stroke-width="1"/>
  <circle cx="573" cy="419" r="3" fill="#6B6358"/>
  <text x="583" y="423" class="pill-text" fill="#6B6358">INTERNAL</text>

  <text x="740" y="423" class="body">All staff</text>

  <circle cx="905" cy="415" r="4" fill="#1B1A18"/>
  <text x="915" y="419" class="body">Active</text>
  <text x="900" y="438" class="meta">2d 14h · no password</text>

  <g transform="translate(1078, 407)">
    <rect width="58" height="26" rx="4" ry="4" fill="#1B1A18"/>
    <text x="29" y="17" class="pill-text" fill="#F1ECE0" text-anchor="middle">ROTATE</text>
  </g>
  <g transform="translate(1142, 407)">
    <rect width="44" height="26" rx="4" ry="4" fill="none" stroke="#1B1A18" stroke-width="1"/>
    <text x="22" y="17" class="pill-text" text-anchor="middle" fill="#1B1A18">COPY</text>
  </g>
  <g transform="translate(1192, 407)">
    <rect width="34" height="26" rx="4" ry="4" fill="none" stroke="#1B1A18" stroke-width="1"/>
    <text x="17" y="17" class="pill-text" text-anchor="middle" fill="#1B1A18">QR</text>
  </g>
  <g transform="translate(1232, 407)">
    <rect width="48" height="26" rx="4" ry="4" fill="none" stroke="#B5482A" stroke-width="1"/>
    <text x="24" y="17" class="pill-text" text-anchor="middle" fill="#B5482A">MORE</text>
  </g>

  <line x1="80" y1="480" x2="1280" y2="480" stroke="#E0D5BC" stroke-width="1"/>

  <!-- ROW 3 -->
  <g transform="translate(80, 510)">
    <rect width="44" height="44" rx="6" ry="6" fill="#FFFFFF" stroke="#E0D5BC" stroke-width="1"/>
    <rect x="13" y="6" width="6" height="6" fill="#1B1A18"/>
    <rect x="25" y="6" width="6" height="6" fill="#1B1A18"/>
    <rect x="6" y="13" width="6" height="6" fill="#1B1A18"/>
    <rect x="19" y="13" width="6" height="6" fill="#1B1A18"/>
    <rect x="32" y="13" width="6" height="6" fill="#1B1A18"/>
    <rect x="19" y="20" width="6" height="6" fill="#1B1A18"/>
    <rect x="13" y="27" width="6" height="6" fill="#1B1A18"/>
    <rect x="25" y="27" width="6" height="6" fill="#1B1A18"/>
    <rect x="6" y="34" width="6" height="6" fill="#1B1A18"/>
    <rect x="32" y="34" width="6" height="6" fill="#1B1A18"/>
  </g>
  <text x="148" y="525" class="name">Onboarding metrics</text>
  <text x="148" y="548" class="meta">m9z5tg7nf4 · v2 · alex@acme.com</text>

  <rect x="560" y="518" width="68" height="22" rx="4" ry="4" fill="none" stroke="#6B6358" stroke-width="1"/>
  <circle cx="573" cy="529" r="3" fill="#6B6358"/>
  <text x="583" y="533" class="pill-text" fill="#6B6358">PUBLIC</text>

  <text x="740" y="533" class="body-muted">Just me</text>

  <circle cx="905" cy="525" r="4" fill="#1B1A18"/>
  <text x="915" y="529" class="body">Permanent</text>
  <text x="900" y="548" class="meta">no expiry · password set</text>

  <g transform="translate(1078, 517)">
    <rect width="58" height="26" rx="4" ry="4" fill="#1B1A18"/>
    <text x="29" y="17" class="pill-text" fill="#F1ECE0" text-anchor="middle">ROTATE</text>
  </g>
  <g transform="translate(1142, 517)">
    <rect width="44" height="26" rx="4" ry="4" fill="none" stroke="#1B1A18" stroke-width="1"/>
    <text x="22" y="17" class="pill-text" text-anchor="middle" fill="#1B1A18">COPY</text>
  </g>
  <g transform="translate(1192, 517)">
    <rect width="34" height="26" rx="4" ry="4" fill="none" stroke="#1B1A18" stroke-width="1"/>
    <text x="17" y="17" class="pill-text" text-anchor="middle" fill="#1B1A18">QR</text>
  </g>
  <g transform="translate(1232, 517)">
    <rect width="48" height="26" rx="4" ry="4" fill="none" stroke="#B5482A" stroke-width="1"/>
    <text x="24" y="17" class="pill-text" text-anchor="middle" fill="#B5482A">MORE</text>
  </g>

  <line x1="80" y1="590" x2="1280" y2="590" stroke="#E0D5BC" stroke-width="1"/>

  <text x="80" y="650" class="meta">11 MCP tools · ask Claude in any chat to publish, update, classify, revert, or audit</text>

  <line x1="80" y1="780" x2="1280" y2="780" stroke="#E0D5BC" stroke-width="1"/>
</svg>
